<svg xmlns="http://www.w3.org/2000/svg" xmlns:xlink="http://www.w3.org/1999/xlink" width="500" zoomAndPan="magnify" viewBox="0 0 375 374.999991" height="500" preserveAspectRatio="xMidYMid meet" version="1.0"><defs><g/></defs><rect x="-37.5" width="450" fill="#ffffff" y="-37.499999" height="449.999989" fill-opacity="1"/><rect x="-37.5" width="450" fill="#ffffff" y="-37.499999" height="449.999989" fill-opacity="1"/><g fill="#a8a29c" fill-opacity="1"><g transform="translate(157.104182, 247.138971)"><g><path d="M 63.421875 -116.984375 C 59.796875 -116.753906 57.160156 -116.296875 55.515625 -115.609375 C 53.867188 -114.929688 52.757812 -113.628906 52.1875 -111.703125 C 51.625 -109.773438 51.34375 -106.660156 51.34375 -102.359375 L 51.34375 -18.015625 C 51.34375 -13.710938 51.65625 -10.597656 52.28125 -8.671875 C 52.90625 -6.742188 54.007812 -5.4375 55.59375 -4.75 C 57.1875 -4.070312 59.796875 -3.625 63.421875 -3.40625 L 63.421875 0 C 56.847656 -0.34375 47.382812 -0.515625 35.03125 -0.515625 C 21.3125 -0.515625 11.222656 -0.34375 4.765625 0 L 4.765625 -3.40625 C 8.390625 -3.625 11.019531 -4.070312 12.65625 -4.75 C 14.300781 -5.4375 15.40625 -6.742188 15.96875 -8.671875 C 16.539062 -10.597656 16.828125 -13.710938 16.828125 -18.015625 L 16.828125 -102.359375 C 16.828125 -106.660156 16.515625 -109.773438 15.890625 -111.703125 C 15.273438 -113.628906 14.171875 -114.929688 12.578125 -115.609375 C 10.992188 -116.296875 8.390625 -116.753906 4.765625 -116.984375 L 4.765625 -120.375 C 11.222656 -120.039062 21.3125 -119.875 35.03125 -119.875 C 47.269531 -119.875 56.734375 -120.039062 63.421875 -120.375 Z M 63.421875 -116.984375 "/></g></g></g><g fill="#000000" fill-opacity="1"><g transform="translate(45.508682, 247.63471)"><g><path d="M 114.9375 -120.375 C 114.144531 -107.800781 113.75 -96.582031 113.75 -86.71875 C 113.75 -81.5 113.921875 -77.414062 114.265625 -74.46875 L 110.34375 -74.46875 C 106.601562 -89.320312 101.785156 -100.035156 95.890625 -106.609375 C 90.003906 -113.179688 83.660156 -116.46875 76.859375 -116.46875 L 76.6875 -116.46875 L 76.6875 -19.21875 C 76.6875 -14.457031 77.164062 -11 78.125 -8.84375 C 79.09375 -6.6875 80.847656 -5.238281 83.390625 -4.5 C 85.941406 -3.769531 90 -3.40625 95.5625 -3.40625 L 95.5625 0 C 79.570312 -0.34375 67.160156 -0.515625 58.328125 -0.515625 C 50.273438 -0.515625 38.597656 -0.34375 23.296875 0 L 23.296875 -3.40625 C 28.847656 -3.40625 32.898438 -3.769531 35.453125 -4.5 C 38.003906 -5.238281 39.757812 -6.6875 40.71875 -8.84375 C 41.6875 -11 42.171875 -14.457031 42.171875 -19.21875 L 42.171875 -116.46875 L 42 -116.46875 C 35.082031 -116.46875 28.703125 -113.207031 22.859375 -106.6875 C 17.023438 -100.175781 12.238281 -89.4375 8.5 -74.46875 L 4.59375 -74.46875 C 4.925781 -77.414062 5.09375 -81.5 5.09375 -86.71875 C 5.09375 -96.582031 4.695312 -107.800781 3.90625 -120.375 C 14.675781 -120.039062 33.210938 -119.875 59.515625 -119.875 C 85.691406 -119.875 104.164062 -120.039062 114.9375 -120.375 Z M 114.9375 -120.375 "/></g></g></g><g fill="#ffbd59" fill-opacity="1"><g transform="translate(224.473202, 247.680017)"><g><path d="M 117.65625 -12.078125 C 120.039062 -8.671875 121.851562 -6.425781 123.09375 -5.34375 C 124.34375 -4.269531 126.046875 -3.679688 128.203125 -3.578125 L 128.203125 0 C 126.617188 0 125.316406 -0.0546875 124.296875 -0.171875 C 111.367188 -0.515625 102.976562 -0.6875 99.125 -0.6875 C 94.820312 -0.6875 86.207031 -0.515625 73.28125 -0.171875 C 72.257812 -0.0546875 71.015625 0 69.546875 0 L 69.546875 -3.578125 C 73.285156 -3.578125 75.972656 -3.800781 77.609375 -4.25 C 79.253906 -4.707031 80.078125 -5.445312 80.078125 -6.46875 C 80.078125 -7.257812 79.679688 -8.222656 78.890625 -9.359375 L 50.5 -49.8125 L 40.125 -36.890625 C 34.34375 -29.640625 31.453125 -23.007812 31.453125 -17 C 31.453125 -13.03125 32.695312 -9.851562 35.1875 -7.46875 C 37.6875 -5.09375 41.144531 -3.738281 45.5625 -3.40625 L 45.5625 0 C 39.101562 -0.34375 29.300781 -0.515625 16.15625 -0.515625 C 8.894531 -0.515625 3.394531 -0.34375 -0.34375 0 L -0.34375 -3.40625 C 8.5 -7.144531 17.910156 -15.191406 27.890625 -27.546875 L 48.28125 -53.046875 L 9.515625 -108.484375 C 7.140625 -111.878906 5.328125 -114.113281 4.078125 -115.1875 C 2.828125 -116.269531 1.128906 -116.867188 -1.015625 -116.984375 L -1.015625 -120.546875 C 0.679688 -120.546875 2.097656 -120.488281 3.234375 -120.375 C 16.492188 -120.039062 25.332031 -119.875 29.75 -119.875 C 33.601562 -119.875 41.484375 -120.039062 53.390625 -120.375 C 54.410156 -120.488281 55.65625 -120.546875 57.125 -120.546875 L 57.125 -116.984375 C 53.382812 -116.984375 50.691406 -116.753906 49.046875 -116.296875 C 47.410156 -115.847656 46.59375 -115.113281 46.59375 -114.09375 C 46.59375 -113.300781 46.988281 -112.335938 47.78125 -111.203125 L 72.4375 -76.171875 L 82.125 -88.078125 C 87.789062 -94.765625 90.625 -100.710938 90.625 -105.921875 C 90.625 -109.097656 89.601562 -111.648438 87.5625 -113.578125 C 85.519531 -115.503906 82.570312 -116.640625 78.71875 -116.984375 L 78.71875 -120.375 C 85.1875 -120.039062 92.726562 -119.875 101.34375 -119.875 C 108.59375 -119.875 114.085938 -120.039062 117.828125 -120.375 L 117.828125 -116.984375 C 114.203125 -115.617188 110.347656 -113.148438 106.265625 -109.578125 C 102.191406 -106.015625 98.394531 -102.078125 94.875 -97.765625 L 74.640625 -72.9375 Z M 117.65625 -12.078125 "/></g></g></g><path fill="#ffffff" d="M 41.539062 174.648438 L 340.957031 174.648438 L 340.957031 199.925781 L 41.539062 199.925781 L 41.539062 174.648438 " fill-opacity="1" fill-rule="nonzero"/><g fill="#000000" fill-opacity="1"><g transform="translate(55.466185, 191.037849)"><g><path d="M 0.453125 -7.71875 L 0.453125 -9.34375 L 8.125 -9.34375 L 8.125 -7.71875 L 5.265625 -7.71875 L 5.265625 0 L 3.3125 0 L 3.3125 -7.71875 Z M 0.453125 -7.71875 "/></g></g></g><g fill="#000000" fill-opacity="1"><g transform="translate(71.350354, 191.037849)"><g><path d="M 2.78125 -9.34375 L 2.78125 0 L 0.8125 0 L 0.8125 -9.34375 Z M 2.78125 -9.34375 "/></g></g></g><g fill="#000000" fill-opacity="1"><g transform="translate(82.258393, 191.037849)"><g><path d="M 2.65625 -9.34375 L 4.546875 -6.15625 L 4.625 -6.15625 L 6.515625 -9.34375 L 8.75 -9.34375 L 5.890625 -4.671875 L 8.8125 0 L 6.53125 0 L 4.625 -3.1875 L 4.546875 -3.1875 L 2.625 0 L 0.375 0 L 3.296875 -4.671875 L 0.421875 -9.34375 Z M 2.65625 -9.34375 "/></g></g></g><g fill="#000000" fill-opacity="1"><g transform="translate(98.734954, 191.037849)"><g><path d="M 0.453125 -7.71875 L 0.453125 -9.34375 L 8.125 -9.34375 L 8.125 -7.71875 L 5.265625 -7.71875 L 5.265625 0 L 3.3125 0 L 3.3125 -7.71875 Z M 0.453125 -7.71875 "/></g></g></g><g fill="#000000" fill-opacity="1"><g transform="translate(114.619124, 191.037849)"><g><path d="M 9.390625 -4.671875 C 9.390625 -3.648438 9.195312 -2.78125 8.8125 -2.0625 C 8.425781 -1.351562 7.90625 -0.8125 7.25 -0.4375 C 6.59375 -0.0625 5.847656 0.125 5.015625 0.125 C 4.191406 0.125 3.445312 -0.0625 2.78125 -0.4375 C 2.125 -0.8125 1.601562 -1.359375 1.21875 -2.078125 C 0.832031 -2.796875 0.640625 -3.660156 0.640625 -4.671875 C 0.640625 -5.691406 0.832031 -6.554688 1.21875 -7.265625 C 1.601562 -7.984375 2.125 -8.53125 2.78125 -8.90625 C 3.445312 -9.28125 4.191406 -9.46875 5.015625 -9.46875 C 5.847656 -9.46875 6.59375 -9.28125 7.25 -8.90625 C 7.90625 -8.53125 8.425781 -7.984375 8.8125 -7.265625 C 9.195312 -6.554688 9.390625 -5.691406 9.390625 -4.671875 Z M 7.390625 -4.671875 C 7.390625 -5.660156 7.171875 -6.414062 6.734375 -6.9375 C 6.304688 -7.457031 5.734375 -7.71875 5.015625 -7.71875 C 4.296875 -7.71875 3.722656 -7.457031 3.296875 -6.9375 C 2.867188 -6.414062 2.65625 -5.660156 2.65625 -4.671875 C 2.65625 -3.679688 2.867188 -2.925781 3.296875 -2.40625 C 3.722656 -1.882812 4.296875 -1.625 5.015625 -1.625 C 5.734375 -1.625 6.304688 -1.882812 6.734375 -2.40625 C 7.171875 -2.925781 7.390625 -3.679688 7.390625 -4.671875 Z M 7.390625 -4.671875 "/></g></g></g><g fill="#000000" fill-opacity="1"><g transform="translate(131.961499, 191.037849)"><g><path d="M 0.8125 0 L 0.8125 -9.34375 L 2.78125 -9.34375 L 2.78125 -5.21875 L 2.90625 -5.21875 L 6.265625 -9.34375 L 8.640625 -9.34375 L 5.171875 -5.15625 L 8.671875 0 L 6.3125 0 L 3.765625 -3.84375 L 2.78125 -2.65625 L 2.78125 0 Z M 0.8125 0 "/></g></g></g><g fill="#000000" fill-opacity="1"><g transform="translate(148.11908, 191.037849)"><g><path d="M 0.8125 0 L 0.8125 -9.34375 L 7.109375 -9.34375 L 7.109375 -7.71875 L 2.78125 -7.71875 L 2.78125 -5.484375 L 6.78125 -5.484375 L 6.78125 -3.859375 L 2.78125 -3.859375 L 2.78125 -1.625 L 7.125 -1.625 L 7.125 0 Z M 0.8125 0 "/></g></g></g><g fill="#000000" fill-opacity="1"><g transform="translate(163.287811, 191.037849)"><g><path d="M 8.625 -9.34375 L 8.625 0 L 6.921875 0 L 2.859375 -5.875 L 2.78125 -5.875 L 2.78125 0 L 0.8125 0 L 0.8125 -9.34375 L 2.546875 -9.34375 L 6.578125 -3.46875 L 6.65625 -3.46875 L 6.65625 -9.34375 Z M 8.625 -9.34375 "/></g></g></g><g fill="#000000" fill-opacity="1"><g transform="translate(180.028674, 191.037849)"><g><path d="M 5.140625 -4.609375 L 5.140625 -3.0625 L 0.875 -3.0625 L 0.875 -4.609375 Z M 5.140625 -4.609375 "/></g></g></g><g fill="#000000" fill-opacity="1"><g transform="translate(193.351876, 191.037849)"><g><path d="M 12.171875 -8.71875 C 11.800781 -9.320312 11.003906 -10.167969 10.324219 -10.785156 L 9.179688 -10.078125 C 9.847656 -9.425781 10.617188 -8.527344 10.941406 -7.921875 Z M 3.660156 -10.773438 C 2.890625 -8.832031 1.539062 -6.945312 0.152344 -5.765625 C 0.421875 -5.394531 0.859375 -4.570312 1 -4.210938 C 1.464844 -4.621094 1.898438 -5.109375 2.335938 -5.648438 L 2.335938 1.089844 L 3.929688 1.089844 L 3.929688 -7.933594 C 4.390625 -8.71875 4.789062 -9.515625 5.125 -10.296875 Z M 12.363281 -6.164062 L 12.148438 -7.601562 L 8.488281 -7.125 C 8.398438 -8.21875 8.347656 -9.425781 8.320312 -10.683594 L 6.765625 -10.683594 C 6.804688 -9.335938 6.882812 -8.078125 6.972656 -6.921875 L 4.378906 -6.574219 L 4.597656 -5.097656 L 7.125 -5.445312 C 7.589844 -1.527344 8.601562 0.886719 10.773438 1.089844 C 11.492188 1.128906 12.183594 0.539062 12.507812 -1.9375 C 12.222656 -2.09375 11.542969 -2.476562 11.261719 -2.8125 C 11.15625 -1.386719 11.003906 -0.746094 10.707031 -0.769531 C 9.679688 -0.898438 9 -2.800781 8.640625 -5.648438 Z M 12.363281 -6.164062 "/></g></g></g><g fill="#000000" fill-opacity="1"><g transform="translate(213.492012, 191.037849)"><g><path d="M 11.171875 -3.632812 L 7.140625 -3.632812 L 7.140625 -4.3125 L 5.625 -4.3125 L 5.625 -3.632812 L 1.863281 -3.632812 L 1.863281 0.527344 L 3.339844 0.527344 L 3.339844 -2.363281 L 5.625 -2.363281 L 5.625 1.128906 L 7.140625 1.128906 L 7.140625 -2.363281 L 9.667969 -2.363281 L 9.667969 -0.910156 C 9.667969 -0.757812 9.589844 -0.707031 9.386719 -0.695312 C 9.21875 -0.695312 8.449219 -0.695312 7.832031 -0.71875 C 8.023438 -0.371094 8.242188 0.152344 8.332031 0.539062 C 9.285156 0.539062 9.988281 0.539062 10.492188 0.332031 C 11.015625 0.128906 11.171875 -0.21875 11.171875 -0.898438 Z M 4.417969 -7.445312 C 4.660156 -6.765625 4.855469 -5.878906 4.890625 -5.304688 L 5.558594 -5.507812 C 5.507812 -6.085938 5.304688 -6.960938 5.070312 -7.640625 Z M 10.21875 -8.5 C 10.039062 -8.011719 9.808594 -7.589844 9.5 -7.203125 C 9.179688 -7.613281 8.9375 -8.039062 8.730469 -8.5 Z M 12.261719 -8.5 L 12.261719 -9.644531 L 9.117188 -9.644531 C 9.246094 -9.949219 9.375 -10.273438 9.464844 -10.59375 L 8.191406 -10.863281 C 7.933594 -9.875 7.394531 -8.976562 6.703125 -8.332031 L 6.703125 -8.871094 L 5.933594 -8.871094 C 6.203125 -9.230469 6.546875 -9.71875 6.90625 -10.21875 L 5.675781 -10.644531 C 5.507812 -10.207031 5.199219 -9.554688 4.957031 -9.140625 L 5.609375 -8.871094 L 4.53125 -8.871094 L 4.53125 -10.863281 L 3.210938 -10.863281 L 3.210938 -8.871094 L 2.082031 -8.871094 L 2.890625 -9.246094 C 2.761719 -9.617188 2.425781 -10.195312 2.105469 -10.617188 L 1.054688 -10.167969 C 1.324219 -9.769531 1.59375 -9.257812 1.71875 -8.871094 L 1.078125 -8.871094 L 1.078125 -4.238281 L 2.15625 -4.238281 L 2.15625 -5.597656 C 2.351562 -5.496094 2.605469 -5.378906 2.722656 -5.289062 C 2.953125 -5.828125 3.160156 -6.675781 3.261719 -7.460938 L 2.515625 -7.613281 C 2.453125 -7.023438 2.351562 -6.394531 2.15625 -5.878906 L 2.15625 -7.972656 L 3.402344 -7.972656 L 3.402344 -4.351562 L 4.339844 -4.351562 L 4.339844 -7.972656 L 5.609375 -7.972656 L 5.609375 -4.546875 L 6.703125 -4.546875 L 6.703125 -7.859375 C 6.945312 -7.613281 7.203125 -7.320312 7.34375 -7.152344 C 7.535156 -7.292969 7.71875 -7.472656 7.882812 -7.664062 C 8.113281 -7.214844 8.359375 -6.792969 8.652344 -6.394531 C 8.113281 -5.984375 7.460938 -5.6875 6.714844 -5.445312 C 6.945312 -5.175781 7.304688 -4.582031 7.421875 -4.300781 C 8.21875 -4.597656 8.921875 -4.96875 9.515625 -5.445312 C 10.128906 -4.890625 10.835938 -4.441406 11.660156 -4.148438 C 11.824219 -4.457031 12.183594 -4.945312 12.46875 -5.1875 C 11.683594 -5.429688 10.992188 -5.804688 10.414062 -6.292969 C 10.925781 -6.90625 11.324219 -7.640625 11.621094 -8.5 Z M 12.261719 -8.5 "/></g></g></g><g fill="#000000" fill-opacity="1"><g transform="translate(233.632147, 191.037849)"><g><path d="M 3.621094 -10.824219 C 2.890625 -8.988281 1.617188 -7.164062 0.308594 -6.035156 C 0.550781 -5.648438 0.976562 -4.816406 1.117188 -4.441406 C 1.539062 -4.839844 1.9375 -5.289062 2.351562 -5.804688 L 2.351562 1.117188 L 3.800781 1.117188 L 3.800781 -7.910156 C 4.277344 -8.707031 4.699219 -9.527344 5.046875 -10.347656 Z M 8.230469 -0.527344 C 7.613281 -0.527344 7.523438 -0.65625 7.523438 -1.414062 L 7.523438 -5.90625 L 11.992188 -5.90625 L 11.992188 -7.371094 L 7.523438 -7.371094 L 7.523438 -10.632812 L 6.046875 -10.632812 L 6.046875 -1.4375 C 6.046875 0.308594 6.496094 0.820312 8.078125 0.820312 L 10.21875 0.820312 C 11.773438 0.820312 12.160156 -0.0625 12.328125 -2.542969 C 11.929688 -2.621094 11.324219 -2.914062 10.976562 -3.183594 C 10.863281 -1.066406 10.761719 -0.527344 10.105469 -0.527344 Z M 8.230469 -0.527344 "/></g></g></g><g fill="#000000" fill-opacity="1"><g transform="translate(253.772283, 191.037849)"><g><path d="M 9.4375 -1.773438 L 9.4375 -0.566406 L 3.59375 -0.566406 L 3.59375 -1.773438 Z M 2.066406 1.15625 L 3.59375 1.15625 L 3.59375 0.640625 L 9.4375 0.640625 L 9.4375 1.15625 L 11.03125 1.15625 L 11.03125 -2.964844 L 2.066406 -2.964844 Z M 3.621094 -5.40625 L 6.304688 -5.40625 L 6.304688 -4.777344 L 3.621094 -4.777344 Z M 6.304688 -7.933594 L 3.621094 -7.933594 L 3.621094 -8.511719 L 6.304688 -8.511719 Z M 6.304688 -6.394531 L 3.621094 -6.394531 L 3.621094 -6.960938 L 6.304688 -6.960938 Z M 7.808594 -4.777344 L 7.808594 -5.40625 L 10.8125 -5.40625 L 10.8125 -6.394531 L 7.808594 -6.394531 L 7.808594 -6.960938 L 10.796875 -6.960938 L 10.796875 -7.933594 L 7.808594 -7.933594 L 7.808594 -8.511719 L 11.441406 -8.511719 L 11.441406 -9.578125 L 7.898438 -9.578125 C 7.742188 -10.015625 7.484375 -10.503906 7.265625 -10.902344 L 5.855469 -10.492188 C 5.984375 -10.21875 6.136719 -9.898438 6.253906 -9.578125 L 4.132812 -9.578125 C 4.289062 -9.875 4.441406 -10.183594 4.582031 -10.464844 L 3.160156 -10.925781 C 2.515625 -9.476562 1.425781 -8.023438 0.28125 -7.125 C 0.589844 -6.84375 1.117188 -6.214844 1.324219 -5.917969 C 1.578125 -6.164062 1.847656 -6.433594 2.117188 -6.726562 L 2.117188 -3.222656 L 3.621094 -3.222656 L 3.621094 -3.660156 L 11.761719 -3.660156 L 11.761719 -4.777344 Z M 7.808594 -4.777344 "/></g></g></g><g fill="#000000" fill-opacity="1"><g transform="translate(273.912419, 191.037849)"><g><path d="M 7.011719 -8.5625 L 5.675781 -8.5625 L 5.675781 -9.257812 L 7.011719 -9.257812 Z M 9.785156 -7.484375 L 9.785156 -6.523438 L 8.4375 -6.523438 L 8.4375 -7.484375 Z M 5.675781 -7.484375 L 7.011719 -7.484375 L 7.011719 -6.523438 L 5.675781 -6.523438 Z M 2.992188 -7.484375 L 4.277344 -7.484375 L 4.277344 -6.523438 L 2.992188 -6.523438 Z M 4.277344 -8.5625 L 1.578125 -8.5625 L 1.578125 -5.429688 L 11.300781 -5.429688 L 11.300781 -8.5625 L 8.4375 -8.5625 L 8.4375 -9.257812 L 11.96875 -9.257812 L 11.96875 -10.453125 L 0.835938 -10.453125 L 0.835938 -9.257812 L 4.277344 -9.257812 Z M 10.683594 -3.75 L 10.683594 -4.90625 L 2.183594 -4.90625 L 2.183594 -3.75 Z M 3.183594 -1.898438 C 2.59375 -1.195312 1.566406 -0.511719 0.578125 -0.078125 C 0.910156 0.152344 1.449219 0.667969 1.707031 0.9375 C 2.695312 0.398438 3.851562 -0.5 4.582031 -1.414062 Z M 8.039062 -1.105469 C 9.050781 -0.527344 10.324219 0.332031 10.902344 0.925781 L 12.121094 0.0625 C 11.441406 -0.527344 10.144531 -1.347656 9.15625 -1.863281 Z M 0.65625 -3.195312 L 0.65625 -2.003906 L 5.648438 -2.003906 L 5.648438 1.144531 L 7.164062 1.144531 L 7.164062 -2.003906 L 12.238281 -2.003906 L 12.238281 -3.195312 Z M 0.65625 -3.195312 "/></g></g></g><g fill="#000000" fill-opacity="1"><g transform="translate(294.052554, 191.037849)"><g><path d="M 3.132812 -2.59375 C 2.515625 -1.785156 1.488281 -0.910156 0.527344 -0.386719 C 0.910156 -0.152344 1.539062 0.347656 1.863281 0.617188 C 2.785156 -0.0117188 3.929688 -1.066406 4.6875 -2.042969 Z M 10.039062 -3.285156 C 10.308594 -2.953125 10.527344 -2.644531 10.695312 -2.386719 L 11.992188 -3.171875 C 11.453125 -3.953125 10.402344 -5.148438 9.488281 -6.058594 L 8.21875 -5.417969 C 8.488281 -5.136719 8.769531 -4.828125 9.039062 -4.507812 L 5.417969 -4.261719 C 6.90625 -4.996094 8.398438 -5.878906 9.757812 -6.90625 L 8.628906 -7.921875 C 8.191406 -7.5625 7.742188 -7.230469 7.265625 -6.894531 L 5.046875 -6.78125 C 5.804688 -7.214844 6.535156 -7.703125 7.230469 -8.21875 L 6.535156 -8.667969 C 7.882812 -8.960938 9.15625 -9.320312 10.21875 -9.746094 L 9.089844 -10.953125 C 7.125 -10.117188 3.890625 -9.449219 0.9375 -9.050781 C 1.105469 -8.730469 1.308594 -8.140625 1.359375 -7.753906 C 2.542969 -7.910156 3.789062 -8.101562 5.019531 -8.347656 C 4.171875 -7.703125 3.3125 -7.214844 2.964844 -7.050781 C 2.53125 -6.816406 2.234375 -6.675781 1.886719 -6.625 C 2.042969 -6.226562 2.261719 -5.507812 2.335938 -5.214844 C 2.632812 -5.339844 3.070312 -5.40625 5.125 -5.546875 C 4.238281 -5.019531 3.492188 -4.648438 3.09375 -4.480469 C 2.3125 -4.097656 1.824219 -3.902344 1.308594 -3.828125 C 1.476562 -3.453125 1.695312 -2.722656 1.757812 -2.453125 C 2.207031 -2.621094 2.785156 -2.710938 5.699219 -2.941406 L 5.699219 -0.566406 C 5.699219 -0.410156 5.636719 -0.371094 5.417969 -0.359375 C 5.199219 -0.359375 4.417969 -0.359375 3.761719 -0.386719 C 3.980469 0.0117188 4.238281 0.65625 4.3125 1.105469 C 5.265625 1.105469 5.996094 1.089844 6.535156 0.859375 C 7.101562 0.617188 7.253906 0.230469 7.253906 -0.527344 L 7.253906 -3.070312 Z M 7.933594 -1.953125 C 8.921875 -1.234375 10.15625 -0.191406 10.707031 0.488281 L 12.058594 -0.410156 C 11.441406 -1.117188 10.167969 -2.105469 9.179688 -2.761719 Z M 7.933594 -1.953125 "/></g></g></g><g fill="#000000" fill-opacity="1"><g transform="translate(314.19269, 191.037849)"><g><path d="M 5.355469 -3.453125 C 5.238281 -4.148438 4.855469 -5.199219 4.457031 -6.023438 L 3.429688 -5.625 C 3.558594 -5.339844 3.683594 -5.007812 3.800781 -4.671875 L 2.515625 -4.46875 C 3.492188 -5.625 4.457031 -7.023438 5.1875 -8.410156 L 3.929688 -9.195312 C 3.648438 -8.550781 3.285156 -7.871094 2.941406 -7.265625 L 2.09375 -7.203125 C 2.761719 -8.152344 3.402344 -9.308594 3.878906 -10.402344 L 2.515625 -10.992188 C 2.054688 -9.628906 1.285156 -8.203125 1.015625 -7.84375 C 0.757812 -7.460938 0.539062 -7.214844 0.296875 -7.152344 C 0.449219 -6.765625 0.679688 -6.097656 0.757812 -5.804688 C 0.9375 -5.894531 1.21875 -5.957031 2.171875 -6.074219 C 1.835938 -5.585938 1.554688 -5.238281 1.386719 -5.058594 C 1 -4.570312 0.730469 -4.300781 0.386719 -4.210938 C 0.566406 -3.828125 0.796875 -3.132812 0.859375 -2.851562 C 1.144531 -2.992188 1.566406 -3.132812 4.132812 -3.582031 C 4.1875 -3.363281 4.222656 -3.183594 4.25 -3.003906 Z M 0.796875 -2.441406 C 0.71875 -1.414062 0.578125 -0.269531 0.28125 0.476562 C 0.589844 0.550781 1.167969 0.730469 1.414062 0.886719 C 1.683594 0.117188 1.886719 -1.105469 1.976562 -2.246094 Z M 2.246094 -2.273438 C 2.375 -1.4375 2.503906 -0.347656 2.53125 0.371094 L 3.660156 0.0898438 C 3.621094 -0.640625 3.46875 -1.707031 3.3125 -2.554688 Z M 3.648438 -2.582031 C 3.878906 -1.914062 4.132812 -1.027344 4.238281 -0.449219 L 5.304688 -0.847656 C 5.175781 -1.398438 4.90625 -2.261719 4.671875 -2.925781 Z M 10.335938 -0.460938 C 10.117188 -0.460938 10.09375 -0.511719 10.09375 -0.910156 L 10.09375 -4.890625 L 10.59375 -4.957031 C 10.761719 -4.582031 10.902344 -4.25 10.992188 -3.953125 L 12.328125 -4.570312 C 12.019531 -5.457031 11.246094 -6.765625 10.59375 -7.753906 L 9.359375 -7.203125 C 9.539062 -6.882812 9.746094 -6.546875 9.949219 -6.203125 L 7.242188 -5.945312 C 7.652344 -6.5625 8.078125 -7.242188 8.460938 -7.972656 L 12.199219 -7.972656 L 12.199219 -9.398438 L 9.179688 -9.398438 C 9.347656 -9.769531 9.5 -10.128906 9.65625 -10.503906 L 8 -10.941406 C 7.832031 -10.414062 7.628906 -9.898438 7.421875 -9.398438 L 5.238281 -9.398438 L 5.238281 -7.972656 L 6.765625 -7.972656 C 6.445312 -7.332031 6.148438 -6.84375 5.996094 -6.636719 C 5.675781 -6.113281 5.417969 -5.804688 5.109375 -5.714844 C 5.289062 -5.304688 5.546875 -4.546875 5.625 -4.25 C 5.804688 -4.328125 6.007812 -4.390625 6.496094 -4.457031 C 6.421875 -2.3125 6.164062 -0.898438 4.46875 -0.0273438 C 4.789062 0.230469 5.226562 0.796875 5.394531 1.167969 C 7.484375 0.0273438 7.832031 -1.898438 7.933594 -4.648438 L 8.667969 -4.738281 L 8.667969 -0.910156 C 8.667969 0.4375 8.921875 0.886719 10.09375 0.886719 L 11.015625 0.886719 C 11.980469 0.886719 12.328125 0.332031 12.453125 -1.644531 C 12.070312 -1.734375 11.464844 -1.976562 11.171875 -2.207031 C 11.132812 -0.707031 11.09375 -0.460938 10.863281 -0.460938 Z M 10.335938 -0.460938 "/></g></g></g></svg>